<svg width="32" height="32" viewBox="0 0 32 32" fill="none" xmlns="http://www.w3.org/2000/svg">
<g id="Property 1=32, Property 2=calendar-minus-01">
<path id="Icon" d="M12 20.0001H20M28 10.6667H4M21.3333 2.66675V6.66675M10.6667 2.66675V6.66675M10.4 29.3334H21.6C23.8402 29.3334 24.9603 29.3334 25.816 28.8974C26.5686 28.5139 27.1805 27.902 27.564 27.1494C28 26.2937 28 25.1736 28 22.9334V11.7334C28 9.4932 28 8.3731 27.564 7.51745C27.1805 6.7648 26.5686 6.15288 25.816 5.76939C24.9603 5.33341 23.8402 5.33341 21.6 5.33341H10.4C8.15979 5.33341 7.03969 5.33341 6.18404 5.76939C5.43139 6.15288 4.81947 6.7648 4.43597 7.51745C4 8.3731 4 9.4932 4 11.7334V22.9334C4 25.1736 4 26.2937 4.43597 27.1494C4.81947 27.902 5.43139 28.5139 6.18404 28.8974C7.03969 29.3334 8.15979 29.3334 10.4 29.3334Z" stroke="#505050" stroke-width="1.5" stroke-linecap="round" stroke-linejoin="round"/>
</g>
</svg>
