<svg width="32" height="32" viewBox="0 0 32 32" fill="none" xmlns="http://www.w3.org/2000/svg">
<g id="Property 1=32, Property 2=folder">
<path id="Icon" d="M17.3333 9.33333L15.8459 6.35856C15.4179 5.5024 15.2038 5.07431 14.8845 4.76155C14.6021 4.48497 14.2618 4.27463 13.8881 4.14575C13.4655 4 12.9869 4 12.0297 4H6.93332C5.43985 4 4.69311 4 4.12268 4.29065C3.62092 4.54631 3.21297 4.95426 2.95731 5.45603C2.66666 6.02646 2.66666 6.77319 2.66666 8.26667V9.33333M2.66666 9.33333H22.9333C25.1735 9.33333 26.2936 9.33333 27.1493 9.76931C27.9019 10.1528 28.5139 10.7647 28.8973 11.5174C29.3333 12.373 29.3333 13.4931 29.3333 15.7333V21.6C29.3333 23.8402 29.3333 24.9603 28.8973 25.816C28.5139 26.5686 27.9019 27.1805 27.1493 27.564C26.2936 28 25.1735 28 22.9333 28H9.06666C6.82645 28 5.70634 28 4.85069 27.564C4.09805 27.1805 3.48612 26.5686 3.10263 25.816C2.66666 24.9603 2.66666 23.8402 2.66666 21.6V9.33333Z" stroke="#113662" stroke-width="1.5" stroke-linecap="round" stroke-linejoin="round"/>
</g>
</svg>
