<svg xmlns="http://www.w3.org/2000/svg"  viewBox="0 0 128 128" width="128px" height="128px"><path fill="#fff" d="M121.3,103.3L99,4l-4.3,4.3C91,12,86.1,14,81,14s-10-2-13.7-5.7L63,4l-22.3,99.3c-1,4.3-0.2,8.5,1.7,12 l-26.9-6.4c-4.8-1.1-9.4,2.6-9.4,7.5c0,4.3,3.5,7.7,7.7,7.7h91C115.6,124,123.7,113.9,121.3,103.3z"/><path fill="#444b54" d="M71 31A3 3 0 1 0 71 37 3 3 0 1 0 71 31zM91 31A3 3 0 1 0 91 37 3 3 0 1 0 91 31z"/><path fill="#444b54" d="M124.3,102.6L101.9,3.3c-0.2-1.1-1-1.9-2.1-2.2c-1-0.3-2.2,0-3,0.8l-4.3,4.3C89.5,9.3,85.4,11,81,11 s-8.5-1.7-11.6-4.8l-4.3-4.3c-0.8-0.8-1.9-1.1-3-0.8c-1.1,0.3-1.9,1.2-2.1,2.2l-22.3,99.3c-1.3,5.9,0.1,12.1,3.9,16.8 c0.4,0.5,0.9,1,1.4,1.5H13.7c-2.6,0-4.7-2.1-4.7-4.7c0-1.4,0.6-2.8,1.8-3.7c1.1-0.9,2.6-1.2,4-0.9l11.9,2.8 c1.6,0.4,3.2-0.6,3.6-2.2c0.4-1.6-0.6-3.2-2.2-3.6l-11.9-2.8c-3.2-0.7-6.5,0-9.1,2.1c-2.6,2-4,5.1-4,8.4c0,5.9,4.8,10.7,10.7,10.7 h43.5c0,0,0,0,0,0c0,0,0.1,0,0.1,0H59c1.7,0,3-1.3,3-3s-1.3-3-3-3h-1.7c-4.3,0-8.3-1.9-11-5.3c-2.7-3.3-3.6-7.6-2.7-11.8l21.1-94 l0.4,0.4C69.4,14.7,75,17,81,17s11.6-2.3,15.8-6.6l0.5-0.4l21.2,94c0.9,4.1,0,8.4-2.7,11.8c-2.7,3.4-6.7,5.3-11,5.3H104 c-1.7,0-3,1.3-3,3s1.3,3,3,3h0.8c6.1,0,11.8-2.7,15.7-7.5C124.3,114.7,125.7,108.6,124.3,102.6z"/><path fill="#444b54" d="M102.6,71.1c-1.6-0.3-3.2,0.7-3.5,2.4l-9,45.1c-0.3,1.5-1.5,2.5-3,2.5c-1.7,0-3-1.3-3-3V84c0-1.7-1.3-3-3-3 s-3,1.3-3,3v34c0,1.6-1.4,3-3.1,3h-1c-1.5,0-2.7-1-3-2.5l-9.1-45.1c-0.3-1.6-1.9-2.7-3.5-2.3c-1.6,0.3-2.7,1.9-2.3,3.5l9.1,45 c0.7,4.3,4.5,7.4,8.9,7.4h1c2.3,0,4.5-0.9,6.1-2.3c1.6,1.4,3.7,2.3,6,2.3c4.3,0,7.9-3,8.8-7.3l9-45.1 C105.3,73,104.2,71.4,102.6,71.1z"/></svg>