<svg width="12" height="12" viewBox="0 0 12 12" fill="none" xmlns="http://www.w3.org/2000/svg">
<g id="Group">
<path id="Vector" d="M2.17916 8.87028C1.53682 8.26139 1.02997 7.52399 0.691664 6.70612C0.633889 6.57158 0.604095 6.4267 0.604095 6.28028C0.604095 6.13387 0.633889 5.98898 0.691664 5.85445C1.14095 4.76151 1.894 3.82019 2.86166 3.14195C3.78013 2.50012 4.87985 2.16897 6 2.19695C6.80592 2.17671 7.60528 2.34658 8.33333 2.69278M9.82666 3.69612C10.4656 4.30444 10.9703 5.03961 11.3083 5.85445C11.3661 5.98898 11.3959 6.13387 11.3959 6.28028C11.3959 6.4267 11.3661 6.57158 11.3083 6.70612C10.859 7.79906 10.106 8.74038 9.13833 9.41862C8.21987 10.0605 7.12015 10.3916 6 10.3636C5.19408 10.3839 4.39472 10.214 3.66666 9.86778" stroke="#505050" stroke-linecap="round" stroke-linejoin="round"/>
<path id="Vector_2" d="M4.08083 6.96266C3.99902 6.74445 3.95752 6.5132 3.95833 6.28016C3.95833 5.73868 4.17344 5.21937 4.55632 4.83649C4.93921 4.4536 5.45852 4.2385 6 4.2385C6.23333 4.23733 6.46433 4.27933 6.6825 4.361M7.91917 5.59766C8.00083 5.81583 8.04283 6.04683 8.04167 6.28016C8.04167 6.82165 7.82656 7.34095 7.44368 7.72384C7.06079 8.10673 6.54148 8.32183 6 8.32183C5.76696 8.32264 5.53571 8.28114 5.3175 8.19933M0.75 10.6668L10.0833 1.3335" stroke="#505050" stroke-linecap="round" stroke-linejoin="round"/>
</g>
</svg>
