<svg width="14" height="14" viewBox="0 0 14 14" fill="none" xmlns="http://www.w3.org/2000/svg">
<g id="Property 1=14, Property 2=home-02">
<path id="Icon" d="M5.25 12.2499V7.93326C5.25 7.60657 5.25 7.44322 5.31358 7.31844C5.36951 7.20867 5.45874 7.11944 5.56851 7.06351C5.69329 6.99993 5.85664 6.99993 6.18333 6.99993H7.81667C8.14336 6.99993 8.30671 6.99993 8.43149 7.06351C8.54126 7.11944 8.63049 7.20867 8.68642 7.31844C8.75 7.44322 8.75 7.60657 8.75 7.93326V12.2499M6.42699 1.61227L2.47064 4.68943C2.20618 4.89512 2.07395 4.99797 1.97868 5.12677C1.8943 5.24086 1.83143 5.3694 1.79318 5.50605C1.75 5.66032 1.75 5.82785 1.75 6.16289V10.3833C1.75 11.0367 1.75 11.3634 1.87716 11.6129C1.98901 11.8324 2.16749 12.0109 2.38701 12.1228C2.63657 12.2499 2.96327 12.2499 3.61667 12.2499H10.3833C11.0367 12.2499 11.3634 12.2499 11.613 12.1228C11.8325 12.0109 12.011 11.8324 12.1228 11.6129C12.25 11.3634 12.25 11.0367 12.25 10.3833V6.16289C12.25 5.82785 12.25 5.66032 12.2068 5.50605C12.1686 5.3694 12.1057 5.24086 12.0213 5.12677C11.9261 4.99797 11.7938 4.89512 11.5294 4.68943L7.57301 1.61227C7.36807 1.45287 7.2656 1.37318 7.15245 1.34254C7.05261 1.31551 6.94738 1.31551 6.84755 1.34254C6.7344 1.37318 6.63193 1.45287 6.42699 1.61227Z" stroke="#113662" stroke-linecap="round" stroke-linejoin="round"/>
</g>
</svg>
