<svg xmlns="http://www.w3.org/2000/svg"  viewBox="0 0 512 512" width="128px" height="128px"><path fill="#6d4a58" d="M346.5,391.25c-22.2-11.583-65.75-7.25-55.96,24.1v.01c1.88,4.14,19.59,22.92,22.24,32.89,3.35,12.55-8.88,43.36-8.88,43.36s-10.655,6.648-5.819,11.772a2,2,0,0,0,1.454.618h19.8a4.018,4.018,0,0,0,2.911-1.256c5.026-5.275,20.837-26.141,27.026-43.574,3.24-9.1,7.8-33.34,7.8-33.34C360.5,417.333,354.515,395.431,346.5,391.25Z"/><path fill="#6d4a58" d="M126.333,397.333c16.314,14.246,13.667,36,4.247,49.827-18.173,31.745-39.741,51.393-44.914,55.863a4,4,0,0,1-2.62.977H63.83a1.992,1.992,0,0,1-2-1.844c-.2-2.929.594-8.554,8.916-10.906a134.23,134.23,0,0,0,11.74-36.27L92.55,392.8A30.917,30.917,0,0,1,126.333,397.333Z"/><path fill="#7f5d6b" d="M454.59,133.48c-12.05,19.09-4.94,46.02-5.69,75.14-1,38.88-32.25,73.18-54.58,68.52-70.82-17.25-222.26,22.43-274.49-6.2-15.65-8.58-16.5-27.79-52.14-50.82-4.38-2.83-10.17.9-10.17,6.12l-3.8,16.88S26.56,260.3,25.39,283.99c-.35,7.04-13.26,9.72-13.23,20.9.55,12.09,12.3,26.24,36.64,29.96a39.8,39.8,0,0,1,31.63,26.68A306.069,306.069,0,0,0,92.55,392.8c2.12,4.57,4.42,9.04,6.93,13.31,10.96,18.68,21.67,30.22,31.1,41.05,11.25,12.93,20.647,25.01,26.417,46.88,0,0-5.421,2.927-4.848,8.2A2,2,0,0,0,154.14,504h20.027c.72,0,8.943-7.53,10.973-18.42,2.759-14.768-1.165-42.22-6.969-63.571a3,3,0,0,1,3.222-3.775c23.94,2.5,72.011.238,109.147-2.884,22.384-1.86,40.8-4.053,47.592-5.691a2.979,2.979,0,0,1,2.876.882A220.788,220.788,0,0,0,357.07,425.83c10.341,9.038,19.747,16.248,22.443,19.832a1.947,1.947,0,0,1,.334,1.537L371.32,491.61s-10.025,6.073-4.615,11.761a2.031,2.031,0,0,0,1.464.629h20a3.9,3.9,0,0,0,2.842-1.184c7.6-8,28.7-53.082,28.019-61.356-1.08-13.26-11.5-36.14-6.13-58.84,2.87-12.1,8.4-52.467,3.459-71.309a1.943,1.943,0,0,1,1.024-2.232c16.006-8.01,51.9-36.483,58.057-81.669,3.55-26.08-5.77-51.69,2.82-69.85,5.93-12.55,28.57-18.75,28.57-31.28C506.83,102.85,474.87,101.38,454.59,133.48Z"/><path fill="#ff6969" d="M116.864,265.082c-9.668,34.224-43.227,64.129-56.08,74.65a4.542,4.542,0,0,0-1.084,5.754c2.354,4.159,8.29,9.136,12.456,8.919a4.227,4.227,0,0,0,2.08-.739c26.562-17.5,48.122-44.758,59.088-80.5C134.407,270.319,117.906,262.375,116.864,265.082Z"/><path fill="#ffb655" d="M69.893,361.843a14.049,14.049,0,0,1-14.05,14.05,4.874,4.874,0,0,1-.54-.02,14.361,14.361,0,0,1-2.73-.36,13.774,13.774,0,0,1-4.5-1.97,14.051,14.051,0,1,1,21.82-11.7Z"/><circle cx="9.687" cy="298.169" r="5.845" fill="#562442"/><path fill="#ed9248" d="M58.458,367.289a4.719,4.719,0,1,0-8.632,2.636c-.016.034-.038.063-.053.1-.28.66-.96,2.2-1.7,3.52a13.774,13.774,0,0,0,4.5,1.97c.853-1.6,1.514-3.152,1.686-3.558A4.7,4.7,0,0,0,58.458,367.289Z"/><circle cx="38.173" cy="283.401" r="4.796" fill="#562442"/></svg>