<svg width="20" height="20" viewBox="0 0 20 20" fill="none" xmlns="http://www.w3.org/2000/svg">
<path d="M1.9919 15.082L8.84598 3.24311C9.22478 2.58881 9.41419 2.26166 9.66129 2.15178C9.87684 2.05593 10.1229 2.05593 10.3385 2.15178C10.5856 2.26166 10.775 2.58881 11.1538 3.24311L18.0078 15.082C18.388 15.7386 18.5781 16.067 18.55 16.3364C18.5255 16.5715 18.4024 16.785 18.2112 16.924C17.9921 17.0833 17.6127 17.0833 16.8539 17.0833H3.14581C2.38704 17.0833 2.00765 17.0833 1.78852 16.924C1.59739 16.785 1.47425 16.5715 1.44974 16.3364C1.42165 16.067 1.61173 15.7386 1.9919 15.082Z" fill="#E74C38"/>
<path d="M10 7.5V10.8333M10 14.1667H10.0083" stroke="white" stroke-width="2" stroke-linecap="round" stroke-linejoin="round"/>
</svg>
