<svg width="12" height="10" viewBox="0 0 12 10" fill="none" xmlns="http://www.w3.org/2000/svg">
<g id="Group">
<path id="Vector" d="M0.691064 5.42871C0.633137 5.2932 0.603271 5.14734 0.603271 4.99996C0.603271 4.85258 0.633137 4.70673 0.691064 4.57122C1.1624 3.45122 1.91606 2.50913 2.85873 1.86046C3.8014 1.2118 4.8934 0.884548 5.99998 0.918965C7.10656 0.884548 8.19798 1.2118 9.14123 1.86046C10.0845 2.50913 10.8376 3.45122 11.3089 4.57122C11.3668 4.70673 11.3967 4.85258 11.3967 4.99996C11.3967 5.14734 11.3668 5.2932 11.3089 5.42871C10.8376 6.54871 10.0839 7.4908 9.14123 8.13947C8.19856 8.78813 7.10656 9.11538 5.99998 9.08097C4.8934 9.11538 3.80198 8.78813 2.85873 8.13947C1.91548 7.4908 1.1624 6.54871 0.691647 5.42871" stroke="#505050" stroke-linecap="round" stroke-linejoin="round"/>
<path id="Vector_2" d="M5.99998 7.04183C6.2681 7.04183 6.53359 6.98902 6.78129 6.88642C7.029 6.78381 7.25407 6.63343 7.44366 6.44384C7.63324 6.25425 7.78363 6.02918 7.88623 5.78147C7.98884 5.53377 8.04165 5.26828 8.04165 5.00016C8.04165 4.73205 7.98884 4.46656 7.88623 4.21885C7.78363 3.97114 7.63324 3.74607 7.44366 3.55649C7.25407 3.3669 7.029 3.21651 6.78129 3.11391C6.53359 3.01131 6.2681 2.9585 5.99998 2.9585C5.4585 2.9585 4.93919 3.1736 4.5563 3.55649C4.17342 3.93937 3.95831 4.45868 3.95831 5.00016C3.95831 5.54165 4.17342 6.06095 4.5563 6.44384C4.93919 6.82673 5.4585 7.04183 5.99998 7.04183Z" stroke="#505050" stroke-linecap="round" stroke-linejoin="round"/>
</g>
</svg>
