<svg width="32" height="32" viewBox="0 0 32 32" fill="none" xmlns="http://www.w3.org/2000/svg">
<g id="Property 1=32, Property 2=lock-01">
<path id="Icon" d="M22.6666 13.3333V10.6667C22.6666 6.98477 19.6819 4 16 4C12.3181 4 9.33331 6.98477 9.33331 10.6667V13.3333M16 19.3333V22M11.7333 28H20.2666C22.5069 28 23.627 28 24.4826 27.564C25.2353 27.1805 25.8472 26.5686 26.2307 25.816C26.6666 24.9603 26.6666 23.8402 26.6666 21.6V19.7333C26.6666 17.4931 26.6666 16.373 26.2307 15.5174C25.8472 14.7647 25.2353 14.1528 24.4826 13.7693C23.627 13.3333 22.5069 13.3333 20.2666 13.3333H11.7333C9.4931 13.3333 8.373 13.3333 7.51735 13.7693C6.7647 14.1528 6.15278 14.7647 5.76929 15.5174C5.33331 16.373 5.33331 17.4931 5.33331 19.7333V21.6C5.33331 23.8402 5.33331 24.9603 5.76929 25.816C6.15278 26.5686 6.7647 27.1805 7.51735 27.564C8.373 28 9.4931 28 11.7333 28Z" stroke="#767676" stroke-width="1.5" stroke-linecap="round" stroke-linejoin="round"/>
</g>
</svg>
