<svg xmlns="http://www.w3.org/2000/svg"  viewBox="0 0 512 512" width="64px" height="64px"><path fill="#616669" d="M463.1,365.6c-15.7-22.3-30-62.6-30-62.6H433c3.1-98-55.4-130-55.4-130h-0.1c-0.8-30.4-10.8-59.7-28.7-84.3	c-36.7-50.3-83.1-69.2-83.1-69.2c-3.9-2.7-7.4-3.9-10.5-3.3c-19.7,4.3-18.4,71.1-16.4,106.3c0.7,12.7,1.6,21.2,1.6,21.2	c-21.3,0-42.4,4.7-61.6,13.8c-7,3.2-13.7,6.9-20.1,11.1c-15.2,9.9-29,21.8-41.1,35.3C105.7,217,99.1,218.4,96,251.1	c-3.5,37.3-19.5,63.7-39.7,82.1c-6.4,5.8-9.3,11.5-9.9,16.8c-0.1,1-0.2,2-0.1,3l7.8,16.8l2.2,19.6c1.5,13,9.7,24.1,21.7,29.3	c6.7,2.9,13.6,5.1,20.7,6.6c0,0,14.1,46.7,80.4,32.6c16.5-3.5,30.7-5.9,42.7-7.5c0,0,22.8,13.6,33.3,37c3.3,7.3,11.9,10.6,19.3,7.2	c0.5-0.2,0.9-0.5,1.4-0.7l182.8-107.4c6.9-4.1,9.3-13,5.2-19.9C463.5,366.3,463.3,365.9,463.1,365.6z"/><path fill="#616669" d="M240.4,143.7c-21.3,0-42.4,4.7-61.6,13.8c9.4-20.1,15-70.5-45.3-123.2c0,0,61.7-5.6,105.3,88.2	C239.6,135.1,240.4,143.7,240.4,143.7z"/><circle cx="168.5" cy="275.2" r="20.4" fill="#3c4042"/><path fill="#efada3" d="M133.5,34.3c60.3,52.7,54.6,103.2,45.3,123.2c-7,3.2-13.7,6.9-20.1,11.1C158.6,168.6,158.6,107.5,133.5,34.3z"/><path fill="#838a8e" d="M71.5,349.4c2.2,0.2,4.2,1.2,5.8,2.8C97,333.8,112.5,307.7,116,271c3.1-32.7,9.7-34,21.6-47.1	c12.1-13.5,25.9-25.4,41.1-35.3c6.5-4.2,13.2-7.9,20.1-11.1c19.3-9.1,40.3-13.8,61.7-13.8c0,0-0.8-8.6-1.6-21.2	c-2-35.1-3.3-101.9,16.4-106.3c3.1-0.7,6.6,0.5,10.5,3.3c0,0,23.4,9.5,50.1,33.1c-33.8-38.3-70.1-53.1-70.1-53.1	c-3.9-2.7-7.4-3.9-10.5-3.3c-19.7,4.3-18.4,71.1-16.4,106.3c0.7,12.7,1.6,21.2,1.6,21.2c-21.3,0-42.4,4.7-61.6,13.8	c-7,3.2-13.7,6.9-20.1,11.1c-15.2,9.9-29,21.8-41.1,35.3C105.7,217,99.1,218.4,96,251.1c-3.5,37.3-19.5,63.7-39.7,82.1	c-6.4,5.8-9.3,11.5-9.9,16.8c-0.1,1-0.2,2-0.1,3C46.3,353,58.4,348,71.5,349.4z"/><path fill="#3c4042" d="M71.5,349.4c5.2,0.6,8.9,5.2,8.4,10.4c-0.1,1.1-0.4,2.2-0.9,3.2l-9.5,19.2c-5.8-3.3-11-7.5-15.4-12.4v0	c-4.1-4.7-7.5-10.4-7.8-16.8C46.3,353,58.4,348,71.5,349.4z"/><path fill="#3c4042" d="M98.7,392c-3.3,0-6-2.7-6-6c0-3.3,2.7-6,6-6c3.3,0,6,2.7,6,6c0,1.6-0.6,3.1-1.8,4.3	C101.8,391.4,100.3,392,98.7,392z"/><path fill="#3c4042" d="M81.5,404.9c-3.3,0-6-2.7-6-6c0-3.3,2.7-6,6-6c3.3,0,6,2.7,6,6c0,1.6-0.6,3.1-1.8,4.2	C84.6,404.3,83.1,404.9,81.5,404.9z"/><path fill="#3c4042" d="M103.2,412.8c-3.3,0-6-2.7-6-6c0-3.3,2.7-6,6-6c3.3,0,6,2.7,6,6c0,1.6-0.6,3.1-1.8,4.3	C106.3,412.2,104.8,412.8,103.2,412.8z"/><path fill="#414649" d="M166.1,423.9c2.9-0.9,4.7-3.8,4.3-6.8c-0.5-3.3-3.6-5.5-6.9-4.9c-0.3,0-0.6,0.1-0.8,0.2	c-35,11.1-62.7,6.6-81-0.1c-3-1.1-6.4,0.3-7.6,3.2l0,0c-0.1,0.3-0.2,0.6-0.3,1c1.4,0.8,2.8,1.5,4.3,2.2c6.7,2.9,13.6,5.1,20.7,6.6	c0.5,1.5,1.1,2.9,1.7,4.2c6.8,1.1,13.7,1.6,20.6,1.6C136.3,431,151.5,428.6,166.1,423.9z"/><path fill="#414649" d="M269.9,448.9c3.3,0.5,6.3-1.8,6.8-5.1s-1.8-6.3-5.1-6.8c-0.8-0.1-14.8-2-44.3,1.2c-3.3,0.3-5.6,3.3-5.3,6.5	c0.1,1.4,0.8,2.8,1.9,3.7l0.2,0.1c1.3,1.2,2.9,1.7,4.6,1.5C256.5,447.2,269.7,448.9,269.9,448.9z"/></svg>