<?xml version="1.0" encoding="utf-8"?><!-- Uploaded to: SVG Repo, www.svgrepo.com, Generator: SVG Repo Mixer Tools -->
<svg width="800px" height="800px" viewBox="0 0 24 24" fill="none" xmlns="http://www.w3.org/2000/svg">
<path fill-rule="evenodd" clip-rule="evenodd" d="M12.0063 7.31853C12.326 7.03878 12.812 7.07117 13.0917 7.39089L16.6815 11.4935C16.9352 11.7835 16.9352 12.2165 16.6815 12.5065L13.0917 16.6091C12.812 16.9288 12.326 16.9612 12.0063 16.6815C11.6866 16.4017 11.6542 15.9157 11.9339 15.596L14.4074 12.7692H7.89744C7.4726 12.7692 7.12821 12.4248 7.12821 12C7.12821 11.5752 7.4726 11.2308 7.89744 11.2308H14.4074L11.9339 8.40398C11.6542 8.08426 11.6866 7.59829 12.0063 7.31853Z" fill="#030D45"/>
<path fill-rule="evenodd" clip-rule="evenodd" d="M12 3.53846C9.83082 3.53846 6.86615 3.73753 5.01495 3.88095C4.40616 3.92811 3.92811 4.40616 3.88095 5.01495C3.73753 6.86615 3.53846 9.83082 3.53846 12C3.53846 14.1692 3.73753 17.1338 3.88095 18.985C3.92811 19.5938 4.40616 20.0719 5.01495 20.1191C6.86615 20.2625 9.83082 20.4615 12 20.4615C14.1692 20.4615 17.1338 20.2625 18.985 20.1191C19.5938 20.0719 20.0719 19.5938 20.1191 18.985C20.2625 17.1338 20.4615 14.1692 20.4615 12C20.4615 9.83082 20.2625 6.86615 20.1191 5.01495C20.0719 4.40616 19.5938 3.92811 18.985 3.88095C17.1338 3.73753 14.1692 3.53846 12 3.53846ZM4.89612 2.34708C6.74819 2.2036 9.76547 2 12 2C14.2345 2 17.2518 2.2036 19.1039 2.34708C20.4686 2.45281 21.5472 3.53141 21.6529 4.89612C21.7964 6.74819 22 9.76547 22 12C22 14.2345 21.7964 17.2518 21.6529 19.1039C21.5472 20.4686 20.4686 21.5472 19.1039 21.6529C17.2518 21.7964 14.2345 22 12 22C9.76547 22 6.74819 21.7964 4.89612 21.6529C3.53141 21.5472 2.45281 20.4686 2.34708 19.1039C2.2036 17.2518 2 14.2345 2 12C2 9.76547 2.2036 6.74819 2.34708 4.89612C2.45281 3.53141 3.53141 2.45281 4.89612 2.34708Z" fill="#030D45"/>
</svg>