<svg width="18" height="14" viewBox="0 0 18 14" fill="none" xmlns="http://www.w3.org/2000/svg">
<g id="Group">
<path id="Vector" d="M1.41582 7.61252C1.33307 7.41892 1.29041 7.21056 1.29041 7.00002C1.29041 6.78948 1.33307 6.58112 1.41582 6.38752C2.08916 4.78752 3.16582 3.44169 4.51249 2.51502C5.85916 1.58835 7.41916 1.12085 8.99999 1.17002C10.5808 1.12085 12.14 1.58835 13.4875 2.51502C14.835 3.44169 15.9108 4.78752 16.5842 6.38752C16.6669 6.58112 16.7096 6.78948 16.7096 7.00002C16.7096 7.21056 16.6669 7.41892 16.5842 7.61252C15.9108 9.21252 14.8342 10.5584 13.4875 11.485C12.1408 12.4117 10.5808 12.8792 8.99999 12.83C7.41916 12.8792 5.85999 12.4117 4.51249 11.485C3.16499 10.5584 2.08916 9.21252 1.41666 7.61252" stroke="#505050" stroke-width="1.5" stroke-linecap="round" stroke-linejoin="round"/>
<path id="Vector_2" d="M8.99998 9.91683C9.383 9.91683 9.76227 9.84139 10.1161 9.69481C10.47 9.54824 10.7915 9.3334 11.0624 9.06256C11.3332 8.79172 11.5481 8.47019 11.6946 8.11632C11.8412 7.76246 11.9166 7.38319 11.9166 7.00016C11.9166 6.61714 11.8412 6.23787 11.6946 5.884C11.5481 5.53014 11.3332 5.20861 11.0624 4.93777C10.7915 4.66693 10.47 4.45209 10.1161 4.30551C9.76227 4.15894 9.383 4.0835 8.99998 4.0835C8.22643 4.0835 7.48457 4.39079 6.93759 4.93777C6.3906 5.48475 6.08331 6.22661 6.08331 7.00016C6.08331 7.77371 6.3906 8.51558 6.93759 9.06256C7.48457 9.60954 8.22643 9.91683 8.99998 9.91683Z" stroke="#505050" stroke-width="1.5" stroke-linecap="round" stroke-linejoin="round"/>
</g>
</svg>
