<svg width="32" height="32" viewBox="0 0 32 32" fill="none" xmlns="http://www.w3.org/2000/svg">
<g id="Property 1=32, Property 2=gridM">
<g id="Icon">
<path d="M11.2 4H6.13333C5.3866 4 5.01323 4 4.72801 4.14532C4.47713 4.27316 4.27316 4.47713 4.14532 4.72801C4 5.01323 4 5.3866 4 6.13333V11.2C4 11.9467 4 12.3201 4.14532 12.6053C4.27316 12.8562 4.47713 13.0602 4.72801 13.188C5.01323 13.3333 5.3866 13.3333 6.13333 13.3333H11.2C11.9467 13.3333 12.3201 13.3333 12.6053 13.188C12.8562 13.0602 13.0602 12.8562 13.188 12.6053C13.3333 12.3201 13.3333 11.9467 13.3333 11.2V6.13333C13.3333 5.3866 13.3333 5.01323 13.188 4.72801C13.0602 4.47713 12.8562 4.27316 12.6053 4.14532C12.3201 4 11.9467 4 11.2 4Z" fill="#113662"/>
<path d="M25.8667 4H20.8C20.0533 4 19.6799 4 19.3947 4.14532C19.1438 4.27316 18.9398 4.47713 18.812 4.72801C18.6667 5.01323 18.6667 5.3866 18.6667 6.13333V11.2C18.6667 11.9467 18.6667 12.3201 18.812 12.6053C18.9398 12.8562 19.1438 13.0602 19.3947 13.188C19.6799 13.3333 20.0533 13.3333 20.8 13.3333H25.8667C26.6134 13.3333 26.9868 13.3333 27.272 13.188C27.5229 13.0602 27.7268 12.8562 27.8547 12.6053C28 12.3201 28 11.9467 28 11.2V6.13333C28 5.3866 28 5.01323 27.8547 4.72801C27.7268 4.47713 27.5229 4.27316 27.272 4.14532C26.9868 4 26.6134 4 25.8667 4Z" fill="#113662" fill-opacity="0.5"/>
<path d="M25.8667 18.6667H20.8C20.0533 18.6667 19.6799 18.6667 19.3947 18.812C19.1438 18.9398 18.9398 19.1438 18.812 19.3947C18.6667 19.6799 18.6667 20.0533 18.6667 20.8V25.8667C18.6667 26.6134 18.6667 26.9868 18.812 27.272C18.9398 27.5229 19.1438 27.7268 19.3947 27.8547C19.6799 28 20.0533 28 20.8 28H25.8667C26.6134 28 26.9868 28 27.272 27.8547C27.5229 27.7268 27.7268 27.5229 27.8547 27.272C28 26.9868 28 26.6134 28 25.8667V20.8C28 20.0533 28 19.6799 27.8547 19.3947C27.7268 19.1438 27.5229 18.9398 27.272 18.812C26.9868 18.6667 26.6134 18.6667 25.8667 18.6667Z" fill="#113662"/>
<path d="M11.2 18.6667H6.13333C5.3866 18.6667 5.01323 18.6667 4.72801 18.812C4.47713 18.9398 4.27316 19.1438 4.14532 19.3947C4 19.6799 4 20.0533 4 20.8V25.8667C4 26.6134 4 26.9868 4.14532 27.272C4.27316 27.5229 4.47713 27.7268 4.72801 27.8547C5.01323 28 5.3866 28 6.13333 28H11.2C11.9467 28 12.3201 28 12.6053 27.8547C12.8562 27.7268 13.0602 27.5229 13.188 27.272C13.3333 26.9868 13.3333 26.6134 13.3333 25.8667V20.8C13.3333 20.0533 13.3333 19.6799 13.188 19.3947C13.0602 19.1438 12.8562 18.9398 12.6053 18.812C12.3201 18.6667 11.9467 18.6667 11.2 18.6667Z" fill="#113662"/>
</g>
</g>
</svg>
