<svg width="20" height="20" viewBox="0 0 20 20" fill="none" xmlns="http://www.w3.org/2000/svg">
<g id="Property 1=20, Property 2=file-attachment-03">
<path id="Icon" d="M16.6667 6.6665V6.49984C16.6667 5.09971 16.6667 3.56631 16.3942 3.03153C16.1545 2.56112 15.7721 2.17867 15.3017 1.93899C14.7669 1.6665 14.0668 1.6665 12.6667 1.6665H7.33334C5.93321 1.6665 5.23315 1.6665 4.69837 1.93899C4.22796 2.17867 3.84551 2.56112 3.60583 3.03153C3.33334 3.56631 3.33334 4.26637 3.33334 5.6665V14.3332C3.33334 15.7333 3.33334 16.4334 3.60583 16.9681C3.84551 17.4386 4.22796 17.821 4.69837 18.0607C5.23315 18.3332 5.93321 18.3332 7.33334 18.3332" stroke="#0B56A7" stroke-width="1.5" stroke-linecap="round" stroke-linejoin="round"/>
<path id="Icon_2" d="M10.7384 15.5552C10.7738 15.4314 10.7915 15.3696 10.818 15.3118C10.8415 15.2606 10.8702 15.2119 10.9035 15.1664C10.9411 15.1152 10.9866 15.0697 11.0776 14.9787L16.4583 9.59798C17.0336 9.02268 17.9664 9.02268 18.5417 9.59796C19.117 10.1733 19.117 11.106 18.5417 11.6814L13.161 17.062C13.07 17.153 13.0244 17.1985 12.9733 17.2361C12.9278 17.2695 12.8791 17.2982 12.8278 17.3217C12.7701 17.3482 12.7082 17.3659 12.5845 17.4012L10 18.1397L10.7384 15.5552Z" stroke="#0B56A7" stroke-width="1.5" stroke-linecap="round" stroke-linejoin="round"/>
<path id="Icon_3" d="M9.99999 9.16683H6.66666M11.6667 5.8335H9.99999H6.66666" stroke="#0B56A7" stroke-width="1.5" stroke-linecap="round" stroke-linejoin="round"/>
</g>
</svg>
