<svg xmlns="http://www.w3.org/2000/svg"  viewBox="0 0 100 100" width="100px" height="100px"><circle cx="50" cy="50" r="38" fill="#fec933"/><path fill="#4a254b" d="M58.405,65.424c2.957-2.863,5.004-7.2,5.486-12.163C64.009,52.045,63.02,51,61.799,51H38.201	c-1.222,0-2.21,1.045-2.092,2.261c0.482,4.963,2.53,9.3,5.486,12.163C43.936,67.691,56.064,67.691,58.405,65.424z"/><path fill="#fc7884" d="M50,69.034c3.154,0,6.061-1.347,8.402-3.613c-2.425-1.714-5.3-2.727-8.402-2.727s-5.977,1.013-8.402,2.727	C43.939,67.688,46.846,69.034,50,69.034z"/><polyline fill="none" stroke="#4a254b" stroke-linecap="round" stroke-linejoin="round" stroke-miterlimit="10" stroke-width="2" points="30.463,38.176 41.41,41.745 32.566,47.186"/><polyline fill="none" stroke="#4a254b" stroke-linecap="round" stroke-linejoin="round" stroke-miterlimit="10" stroke-width="2" points="69.537,38.176 58.59,41.745 67.434,47.186"/></svg>