<svg width="36" height="36" viewBox="0 0 36 36" fill="none" xmlns="http://www.w3.org/2000/svg">
<path d="M30 12V11.7C30 9.17976 30 6.41965 29.5095 5.45704C29.0781 4.61031 28.3897 3.9219 27.543 3.49047C26.5804 3 25.3202 3 22.8 3H13.2C10.6798 3 9.41965 3 8.45704 3.49047C7.61031 3.9219 6.9219 4.61031 6.49047 5.45704C6 6.41965 6 7.67976 6 10.2V25.8C6 28.3202 6 29.5804 6.49047 30.543C6.9219 31.3897 7.61031 32.0781 8.45704 32.5095C9.41965 33 10.6798 33 13.2 33" stroke="#0B56A7" stroke-width="2.5" stroke-linecap="round" stroke-linejoin="round"/>
<path d="M19.3291 27.9996C19.3928 27.7769 19.4246 27.6655 19.4723 27.5616C19.5147 27.4693 19.5663 27.3816 19.6264 27.2998C19.694 27.2077 19.7759 27.1257 19.9398 26.9619L29.625 17.2767C30.6606 16.2411 32.3395 16.2411 33.375 17.2766C34.4106 18.3122 34.4106 19.9912 33.3751 21.0267L23.6897 30.7119C23.5259 30.8758 23.444 30.9577 23.3519 31.0253C23.27 31.0854 23.1823 31.137 23.0901 31.1793C22.9862 31.227 22.8748 31.2589 22.652 31.3225L18 32.6517L19.3291 27.9996Z" stroke="#0B56A7" stroke-width="2.5" stroke-linecap="round" stroke-linejoin="round"/>
<path d="M18 16.5H12M21 10.5H18H12" stroke="#0B56A7" stroke-width="2.5" stroke-linecap="round" stroke-linejoin="round"/>
</svg>
