<svg width="28" height="24" viewBox="0 0 28 24" fill="none" xmlns="http://www.w3.org/2000/svg">
<g id="Group">
<path id="Vector" d="M5.26666 18.5598C3.79843 17.1681 2.63994 15.4826 1.86666 13.6131C1.7346 13.3056 1.6665 12.9745 1.6665 12.6398C1.6665 12.3051 1.7346 11.974 1.86666 11.6665C2.89359 9.16832 4.61486 7.01674 6.82666 5.46648C8.926 3.99943 11.4396 3.24253 14 3.30648C15.8421 3.26022 17.6692 3.64848 19.3333 4.43981M22.7467 6.73314C24.207 8.12359 25.3606 9.80398 26.1333 11.6665C26.2654 11.974 26.3335 12.3051 26.3335 12.6398C26.3335 12.9745 26.2654 13.3056 26.1333 13.6131C25.1064 16.1113 23.3851 18.2629 21.1733 19.8131C19.074 21.2802 16.5603 22.0371 14 21.9731C12.1579 22.0194 10.3308 21.6311 8.66666 20.8398" stroke="#505050" stroke-width="1.5" stroke-linecap="round" stroke-linejoin="round"/>
<path id="Vector_2" d="M9.61333 14.1999C9.42634 13.7012 9.33147 13.1726 9.33333 12.6399C9.33333 11.4022 9.825 10.2153 10.7002 9.34009C11.5753 8.46492 12.7623 7.97325 14 7.97325C14.5333 7.97058 15.0613 8.06658 15.56 8.25325M18.3867 11.0799C18.5733 11.5786 18.6693 12.1066 18.6667 12.6399C18.6667 13.8776 18.175 15.0646 17.2998 15.9397C16.4247 16.8149 15.2377 17.3066 14 17.3066C13.4673 17.3084 12.9388 17.2136 12.44 17.0266M2 22.6666L23.3333 1.33325" stroke="#505050" stroke-width="1.5" stroke-linecap="round" stroke-linejoin="round"/>
</g>
</svg>
