<svg width="32" height="32" viewBox="0 0 32 32" fill="none" xmlns="http://www.w3.org/2000/svg">
<g id="Property 1=32, Property 2=file-attachment-03">
<path id="Icon" d="M26.6667 10.6667V10.4001C26.6667 8.15987 26.6667 5.70643 26.2307 4.85079C25.8472 4.09814 25.2353 3.48622 24.4826 3.10272C23.627 2.66675 22.5069 2.66675 20.2667 2.66675H11.7333C9.49313 2.66675 8.37303 2.66675 7.51738 3.10272C6.76473 3.48622 6.15281 4.09814 5.76932 4.85079C5.33334 5.70643 5.33334 6.82654 5.33334 9.06675V22.9334C5.33334 25.1736 5.33334 26.2937 5.76932 27.1494C6.15281 27.902 6.76473 28.5139 7.51738 28.8974C8.37303 29.3334 9.49313 29.3334 11.7333 29.3334" stroke="#0B56A7" stroke-width="1.5" stroke-linecap="round" stroke-linejoin="round"/>
<path id="Icon_2" d="M17.1815 24.8887C17.238 24.6906 17.2663 24.5916 17.3087 24.4993C17.3464 24.4173 17.3923 24.3393 17.4457 24.2666C17.5058 24.1847 17.5786 24.1119 17.7242 23.9662L26.3334 15.3571C27.2538 14.4366 28.7462 14.4366 29.6667 15.3571C30.5872 16.2776 30.5872 17.77 29.6667 18.6905L21.0576 27.2996C20.9119 27.4452 20.8391 27.518 20.7572 27.5781C20.6845 27.6315 20.6065 27.6774 20.5245 27.7151C20.4322 27.7575 20.3332 27.7857 20.1351 27.8423L16 29.0238L17.1815 24.8887Z" stroke="#0B56A7" stroke-width="1.5" stroke-linecap="round" stroke-linejoin="round"/>
<path id="Icon_3" d="M16 14.6666H10.6667M18.6667 9.33325H16H10.6667" stroke="#0B56A7" stroke-width="1.5" stroke-linecap="round" stroke-linejoin="round"/>
</g>
</svg>
