<svg xmlns="http://www.w3.org/2000/svg"  viewBox="0 0 50 50" width="50px" height="50px"><path d="M 39.009766 3 C 37.099766 3.011 35.747422 5.3946094 35.232422 6.4746094 C 35.072422 6.7856094 35 7 35 7 C 34.847 7.076 34.703359 7.1684844 34.568359 7.2714844 C 32.077359 8.8154844 30.455 11.429 28 15 C 25.937 18 21.234 18.625 17 21 C 12.766 23.375 8 27.5 8 35 L 8 39 C 8 40.668484 6.6684839 42 5 42 C 3.3315161 42 2 40.668484 2 39 C 2 34.685185 3.1844374 31.901077 4.3320312 30.179688 C 5.4796251 28.458297 6.5136719 27.857422 6.5136719 27.857422 A 1.0001 1.0001 0 0 0 6.0273438 25.992188 A 1.0001 1.0001 0 0 0 5.4863281 26.142578 C 5.4863281 26.142578 4.0203748 27.041704 2.6679688 29.070312 C 1.3155626 31.098923 -5.9211895e-16 34.314815 0 39 C 0 41.749516 2.2504839 44 5 44 C 6.3082421 44 7.495051 43.480714 8.3886719 42.650391 C 9.0171506 44.030141 10.386487 45 12 45 L 27 45 C 27.552 45 28 44.552 28 44 C 28 41 26 40 24 40 L 23 40 C 24.67 40 27.726406 38.6015 28.691406 35.8125 L 26.099609 30.435547 C 25.859609 29.937547 26.068406 29.338609 26.566406 29.099609 C 27.060406 28.861609 27.660391 29.068406 27.900391 29.566406 L 31.09375 36.1875 C 32.55175 39.1475 34.141656 42.246828 34.847656 43.173828 C 35.672656 44.256828 36.82 45 38.125 45 L 40.998047 45 C 41.563047 45 41.993 44.54 42 44 C 42.001 43.928 41.994469 43.85425 41.980469 43.78125 C 41.713469 42.44025 40.955 41.230844 39.125 40.714844 L 36.173828 31.248047 C 38.734828 28.738047 40 26.036 40 23 C 40 20.607 39.318 18.798 39 18 L 40 18 C 45.031 18 45.786703 14.978188 45.970703 14.242188 C 46.088703 13.771187 45.85025 13.282937 45.40625 13.085938 C 45.39925 13.082937 44.653031 12.717844 44.332031 11.839844 C 43.353031 8.5588437 41.565 6.7365938 40 6.1835938 L 40 4 C 40 3.456 39.553766 2.997 39.009766 3 z M 40.617188 11.001953 C 40.924813 11.001953 41.307734 11.077766 41.615234 11.384766 C 42.230234 11.999766 41.923828 12.923828 41.923828 12.923828 C 41.923828 12.923828 40.999766 13.229234 40.384766 12.615234 C 39.769766 12.000234 40.078125 11.078125 40.078125 11.078125 C 40.078125 11.078125 40.309562 11.001953 40.617188 11.001953 z M 45 21 C 43.676 21 42.750266 21.391172 41.947266 21.826172 C 41.978266 22.204172 42 22.592 42 23 C 42 24.804 41.599984 26.530828 40.833984 28.173828 C 43.488984 27.003828 45 25 45 25 L 47.996094 25 C 48.566094 25 49.002 24.534 49 24 C 49 23.906 48.985078 23.810844 48.955078 23.714844 C 48.599078 22.544844 47.485 21 45 21 z"/></svg>