<svg width="28" height="22" viewBox="0 0 28 22" fill="none" xmlns="http://www.w3.org/2000/svg">
<g id="Group">
<path id="Vector" d="M1.86534 11.9799C1.73294 11.6701 1.66467 11.3368 1.66467 10.9999C1.66467 10.663 1.73294 10.3296 1.86534 10.0199C2.94267 7.45988 4.66534 5.30655 6.82001 3.82388C8.97467 2.34122 11.4707 1.59322 14 1.67188C16.5293 1.59322 19.024 2.34122 21.18 3.82388C23.336 5.30655 25.0573 7.45988 26.1347 10.0199C26.2671 10.3296 26.3353 10.663 26.3353 10.9999C26.3353 11.3368 26.2671 11.6701 26.1347 11.9799C25.0573 14.5399 23.3347 16.6932 21.18 18.1759C19.0253 19.6585 16.5293 20.4066 14 20.3279C11.4707 20.4066 8.97601 19.6585 6.82001 18.1759C4.66401 16.6932 2.94268 14.5399 1.86668 11.9799" stroke="#505050" stroke-width="1.5" stroke-linecap="round" stroke-linejoin="round"/>
<path id="Vector_2" d="M14 15.6666C14.6128 15.6666 15.2196 15.5459 15.7858 15.3114C16.352 15.0768 16.8665 14.7331 17.2998 14.2998C17.7332 13.8664 18.0769 13.352 18.3114 12.7858C18.5459 12.2196 18.6666 11.6128 18.6666 10.9999C18.6666 10.3871 18.5459 9.78025 18.3114 9.21406C18.0769 8.64788 17.7332 8.13343 17.2998 7.70009C16.8665 7.26675 16.352 6.923 15.7858 6.68848C15.2196 6.45396 14.6128 6.33325 14 6.33325C12.7623 6.33325 11.5753 6.82492 10.7001 7.70009C9.82498 8.57526 9.33331 9.76224 9.33331 10.9999C9.33331 12.2376 9.82498 13.4246 10.7001 14.2998C11.5753 15.1749 12.7623 15.6666 14 15.6666Z" stroke="#505050" stroke-width="1.5" stroke-linecap="round" stroke-linejoin="round"/>
</g>
</svg>
