<svg width="210" height="23" viewBox="0 0 210 23" fill="none" xmlns="http://www.w3.org/2000/svg">
<g id="&#236;&#160;&#132;&#236;&#158;&#144;&#235;&#147;&#177;&#234;&#184;&#176; &#234;&#180;&#128;&#235;&#166;&#172; &#236;&#139;&#156;&#236;&#138;&#164;&#237;&#133;&#156;">
<path d="M19.1092 0.0251855V16.6476H16.3146V8.31122H12.2863V6.04452H16.3146V0.0251855H19.1092ZM19.6883 20.0477V22.3144H4.17936V15.1869H6.97398V20.0477H19.6883ZM8.40906 4.55858C8.40906 7.3038 10.247 10.1246 13.7717 11.2831L12.3618 13.5246C9.81897 12.6557 8.01882 10.9305 7.02434 8.76456C6.01726 11.1698 4.11641 13.0713 1.43508 14.0031L0 11.7364C3.62546 10.5527 5.56408 7.55565 5.56408 4.53339V3.92894H0.830836V1.66224H13.1171V3.92894H8.40906V4.55858Z" fill="#113662"/>
<path d="M30.4891 6.47268C30.4891 9.99865 32.5788 14.0031 36.1791 15.6654L34.6182 17.8817C32.0501 16.6728 30.1493 14.2298 29.1296 11.3838C28.0974 14.5069 26.1084 17.1765 23.49 18.4358L21.8535 16.2447C25.479 14.532 27.6693 10.2505 27.6945 6.47268V4.55858H22.7347V2.24151H35.2476V4.55858H30.4891V6.47268ZM40.1571 0V8.8653H43.6566V11.2076H40.1571V22.7677H37.3624V0H40.1571Z" fill="#113662"/>
<path d="M65.3842 10.5527V12.8446H44.6134V10.5527H65.3842ZM62.9924 6.52305V8.76456H47.1562V0.73038H62.8666V2.99708H49.9508V6.52305H62.9924ZM54.961 14.4313C59.8705 14.4061 62.8162 15.9172 62.8414 18.5617C62.8162 21.2314 59.8705 22.7425 54.961 22.7425C50.0012 22.7425 47.0303 21.2314 47.0303 18.5617C47.0303 15.9172 50.0012 14.4061 54.961 14.4313ZM54.961 16.5721C51.6377 16.5721 49.8501 17.2773 49.8753 18.5617C49.8501 19.8966 51.6377 20.5766 54.961 20.5766C58.2088 20.5766 60.0216 19.8966 60.0468 18.5617C60.0216 17.2773 58.2088 16.5721 54.961 16.5721Z" fill="#113662"/>
<path d="M85.9034 0V22.7677H83.0836V0H85.9034ZM79.1056 2.41781C79.1056 9.19271 76.4872 14.9602 68.5062 18.738L67.0459 16.4965C73.0002 13.6631 75.7697 9.80976 76.2606 4.63413H68.204V2.41781H79.1056Z" fill="#113662"/>
<path d="M108.009 1.68743V3.04745C107.983 4.60895 107.983 6.85046 107.455 9.74679L104.685 9.49494C105.126 7.14009 105.214 5.40229 105.264 4.0045H96.4021V1.68743H108.009ZM102.268 6.87564V11.409C104.622 11.3209 107.039 11.1446 109.242 10.8298L109.393 12.8446C104.66 13.7009 99.2974 13.7765 95.2943 13.8017L95.0426 11.5601C96.3895 11.5476 97.9001 11.535 99.4989 11.5098V6.87564H102.268ZM113.447 0V7.10231H116.393V9.44456H113.447V17.0506H110.577V0H113.447ZM114.177 20.0477V22.3144H98.4414V15.5395H101.261V20.0477H114.177Z" fill="#113662"/>
<path d="M136.534 0V22.7929H133.765V0H136.534ZM129.535 1.98966V10.5275H121.705V15.1113C125.293 15.0861 128.389 14.9098 131.927 14.3054L132.178 16.5972C128.301 17.2773 124.902 17.4032 120.824 17.4032H118.835V8.31122H126.69V4.25635H118.809V1.98966H129.535Z" fill="#113662"/>
<path d="M154.586 5.46525C154.561 9.64605 156.751 13.8268 160.452 15.4135L158.79 17.655C156.172 16.4461 154.246 14.0283 153.201 11.0564C152.156 14.2676 150.205 16.8869 147.436 18.1839L145.724 15.8417C149.525 14.2046 151.741 9.84753 151.741 5.46525V1.83854H154.586V5.46525ZM164.908 0V22.7929H162.088V0H164.908Z" fill="#113662"/>
<path d="M180.014 3.123C180.014 6.64897 183.464 10.1749 188.222 11.0061L186.963 13.3483C183.149 12.5424 180.027 10.2379 178.554 7.17787C177.044 10.2127 173.922 12.5298 170.12 13.3483L168.886 11.0061C173.594 10.1498 177.018 6.62379 177.044 3.123V1.43557H180.014V3.123ZM189.053 17.5543V19.8714H168.257V17.5543H189.053Z" fill="#113662"/>
<path d="M200.156 1.41039V3.67708H194.189V5.81785H199.3V7.98381H194.189V10.3261C196.921 10.3009 198.796 10.2001 201.012 9.79716L201.314 11.9883C198.696 12.4668 196.53 12.5676 193.006 12.5676H191.495V1.41039H200.156ZM210 0V13.6254H207.331V0H210ZM205.519 0.377783V13.4491H202.85V7.83269H200.282V5.566H202.85V0.377783H205.519ZM210 14.5824V22.4907H194.642V14.5824H210ZM197.437 16.7987V20.224H207.231V16.7987H197.437Z" fill="#113662"/>
</g>
</svg>
