<svg width="18" height="16" viewBox="0 0 18 16" fill="none" xmlns="http://www.w3.org/2000/svg">
<g id="Group">
<path id="Vector" d="M3.54166 12.1001C2.62402 11.2303 1.89996 10.1768 1.41666 9.00846C1.33413 8.81627 1.29156 8.60929 1.29156 8.40013C1.29156 8.19096 1.33413 7.98398 1.41666 7.79179C2.0585 6.23044 3.13429 4.88571 4.51666 3.91679C5.82875 2.99989 7.39978 2.52683 9 2.56679C10.1513 2.53788 11.2933 2.78054 12.3333 3.27513M14.4667 4.70846C15.3794 5.57749 16.1004 6.62773 16.5833 7.79179C16.6659 7.98398 16.7084 8.19096 16.7084 8.40013C16.7084 8.60929 16.6659 8.81627 16.5833 9.00846C15.9415 10.5698 14.8657 11.9145 13.4833 12.8835C12.1712 13.8004 10.6002 14.2734 9 14.2335C7.84868 14.2624 6.70674 14.0197 5.66666 13.5251" stroke="#505050" stroke-width="1.5" stroke-linecap="round" stroke-linejoin="round"/>
<path id="Vector_2" d="M6.25833 9.37516C6.14146 9.06343 6.08217 8.73308 6.08333 8.40016C6.08333 7.62661 6.39062 6.88475 6.93761 6.33777C7.48459 5.79079 8.22645 5.4835 9 5.4835C9.33333 5.48183 9.66333 5.54183 9.975 5.6585M11.7417 7.42516C11.8583 7.73683 11.9183 8.06683 11.9167 8.40016C11.9167 9.17371 11.6094 9.91558 11.0624 10.4626C10.5154 11.0095 9.77355 11.3168 9 11.3168C8.66709 11.318 8.33673 11.2587 8.025 11.1418M1.5 14.6668L14.8333 1.3335" stroke="#505050" stroke-width="1.5" stroke-linecap="round" stroke-linejoin="round"/>
</g>
</svg>
