<svg width="20" height="20" viewBox="0 0 20 20" fill="none" xmlns="http://www.w3.org/2000/svg">
<g id="Component 5">
<path id="Vector" d="M10 10.125C7.63452 10.125 5.70837 8.19885 5.70837 5.83332C5.70837 3.4678 7.63452 1.54166 10 1.54166C12.3656 1.54166 14.2917 3.4678 14.2917 5.83332C14.2917 8.19885 12.3656 10.125 10 10.125ZM10 1.79166C7.7739 1.79166 5.95837 3.60718 5.95837 5.83332C5.95837 8.05947 7.7739 9.87499 10 9.87499C12.2262 9.87499 14.0417 8.05947 14.0417 5.83332C14.0417 3.60718 12.2262 1.79166 10 1.79166Z" stroke="#767676"/>
<path id="Vector_2" d="M17.1585 18.4583C17.1283 18.4583 17.097 18.446 17.0714 18.4204C17.0457 18.3948 17.0335 18.3635 17.0335 18.3333C17.0335 15.0821 13.7643 12.625 10.0001 12.625C6.236 12.625 2.9668 15.0821 2.9668 18.3333C2.9668 18.3635 2.95451 18.3948 2.92887 18.4204C2.90322 18.446 2.87194 18.4583 2.8418 18.4583C2.81165 18.4583 2.78037 18.446 2.75473 18.4204C2.72908 18.3948 2.7168 18.3635 2.7168 18.3333C2.7168 15.1343 5.89336 12.375 10.0001 12.375C14.1069 12.375 17.2835 15.1343 17.2835 18.3333C17.2835 18.3635 17.2712 18.3948 17.2455 18.4204C17.2199 18.446 17.1886 18.4583 17.1585 18.4583Z" stroke="#767676"/>
</g>
</svg>
