<svg width="14" height="14" viewBox="0 0 14 14" fill="none" xmlns="http://www.w3.org/2000/svg">
<g id="alert-triangle">
<path id="Icon" d="M1.39436 10.5574L6.19221 2.27018C6.45737 1.81217 6.58996 1.58317 6.76293 1.50625C6.91381 1.43916 7.08606 1.43916 7.23695 1.50625C7.40992 1.58317 7.5425 1.81217 7.80767 2.27018L12.6055 10.5574C12.8716 11.017 13.0047 11.2469 12.985 11.4355C12.9679 11.6 12.8817 11.7495 12.7479 11.8468C12.5945 11.9583 12.3289 11.9583 11.7978 11.9583H2.20209C1.67095 11.9583 1.40538 11.9583 1.25199 11.8468C1.1182 11.7495 1.032 11.6 1.01484 11.4355C0.995178 11.2469 1.12824 11.017 1.39436 10.5574Z" fill="#E74C38"/>
<path id="Icon_2" d="M7 5.25V7.58333M7 9.91667H7.00583" stroke="#F8F8FA" stroke-width="1.5" stroke-linecap="round" stroke-linejoin="round"/>
</g>
</svg>
