<svg width="32" height="32" viewBox="0 0 32 32" fill="none" xmlns="http://www.w3.org/2000/svg">
<g id="Property 1=32, Property 2=file-search-02">
<path id="Icon" d="M18.6666 14.6667H10.6666M13.3333 20.0001H10.6666M21.3333 9.33341H10.6666M26.6666 14.0001V9.06675C26.6666 6.82654 26.6666 5.70643 26.2307 4.85079C25.8472 4.09814 25.2353 3.48622 24.4826 3.10272C23.627 2.66675 22.5069 2.66675 20.2666 2.66675H11.7333C9.4931 2.66675 8.373 2.66675 7.51735 3.10272C6.7647 3.48622 6.15278 4.09814 5.76929 4.85079C5.33331 5.70643 5.33331 6.82654 5.33331 9.06675V22.9334C5.33331 25.1736 5.33331 26.2937 5.76929 27.1494C6.15278 27.902 6.7647 28.5139 7.51735 28.8974C8.373 29.3334 9.4931 29.3334 11.7333 29.3334H15.3333M29.3333 29.3334L27.3333 27.3334M28.6666 24.0001C28.6666 26.5774 26.5773 28.6667 24 28.6667C21.4227 28.6667 19.3333 26.5774 19.3333 24.0001C19.3333 21.4228 21.4227 19.3334 24 19.3334C26.5773 19.3334 28.6666 21.4228 28.6666 24.0001Z" stroke="#113662" stroke-width="1.5" stroke-linecap="round" stroke-linejoin="round"/>
</g>
</svg>
