<svg xmlns="http://www.w3.org/2000/svg"  viewBox="0 0 128 128" width="128px" height="128px"><path fill="#c3dbea" d="M109,109H29c-5.5,0-10-4.5-10-10V29c0-5.5,4.5-10,10-10l50.3,10L109,19c5.5,0,10,4.5,10,10v70C119,104.5,114.5,109,109,109z"/><path fill="#fff" d="M90.9,89H20.8c-5.7,0-9.5-5.7-7.4-11L19,64V29c0-5.5,4.5-10,10-10h70c5.5,0,10,4.5,10,10v35l-7,17.5C100.2,86,95.8,89,90.9,89z"/><path fill="#444b54" d="M99,112H29c-7.2,0-13-5.8-13-13c0-1.7,1.3-3,3-3s3,1.3,3,3c0,3.9,3.1,7,7,7h70c3.9,0,7-3.1,7-7V89c0-1.7,1.3-3,3-3s3,1.3,3,3v10C112,106.2,106.2,112,99,112z"/><path fill="#444b54" d="M99,16h-2v-2c0-4.4-3.6-8-8-8s-8,3.6-8,8v10c0,4.4,3.6,8,8,8c1.7,0,3-1.3,3-3s-1.3-3-3-3c-1.1,0-2-0.9-2-2V14c0-1.1,0.9-2,2-2s2,0.9,2,2v5c0,1.7,1.3,3,3,3h5c3.9,0,7,3.1,7,7v27.3c0,4.7-0.9,9.4-2.6,13.7l-4.1,10.3c-1.4,3.4-4.7,5.7-8.4,5.7H20.8c-1.7,0-3.2-0.8-4.1-2.2c-0.9-1.4-1.1-3.1-0.5-4.7l2.8-6.9c2-5.1,3.1-10.5,3.1-16V29c0-3.9,3.1-7,7-7h5c1.7,0,3-1.3,3-3s-1.3-3-3-3h-5c-7.2,0-13,5.8-13,13v27.3c0,4.7-0.9,9.4-2.6,13.7l-2.8,6.9c-1.4,3.4-0.9,7.2,1.1,10.3c2,3,5.5,4.8,9.1,4.8h70.1c6.2,0,11.6-3.7,13.9-9.4l4.1-10.3c2-5.1,3.1-10.5,3.1-16V29C112,21.8,106.2,16,99,16z"/><path fill="#444b54" d="M49,32c1.7,0,3-1.3,3-3s-1.3-3-3-3c-1.1,0-2-0.9-2-2V14c0-1.1,0.9-2,2-2s2,0.9,2,2v5c0,1.7,1.3,3,3,3h20c1.7,0,3-1.3,3-3s-1.3-3-3-3H57v-2c0-4.4-3.6-8-8-8s-8,3.6-8,8v10C41,28.4,44.6,32,49,32z"/><path fill="#c3dbea" d="M44 49L44 49c-2.8 0-5-2.2-5-5v0c0-2.8 2.2-5 5-5h0c2.8 0 5 2.2 5 5v0C49 46.8 46.8 49 44 49zM64 49L64 49c-2.8 0-5-2.2-5-5v0c0-2.8 2.2-5 5-5h0c2.8 0 5 2.2 5 5v0C69 46.8 66.8 49 64 49zM84 49L84 49c-2.8 0-5-2.2-5-5v0c0-2.8 2.2-5 5-5h0c2.8 0 5 2.2 5 5v0C89 46.8 86.8 49 84 49zM44 64L44 64c-2.8 0-5-2.2-5-5v0c0-2.8 2.2-5 5-5h0c2.8 0 5 2.2 5 5v0C49 61.8 46.8 64 44 64zM64 64L64 64c-2.8 0-5-2.2-5-5v0c0-2.8 2.2-5 5-5h0c2.8 0 5 2.2 5 5v0C69 61.8 66.8 64 64 64z"/><path fill="#ff5576" d="M84,64L84,64c-2.8,0-5-2.2-5-5v0c0-2.8,2.2-5,5-5h0c2.8,0,5,2.2,5,5v0C89,61.8,86.8,64,84,64z"/><path fill="#c3dbea" d="M80.1 78.5L80.1 78.5c-2.8 0-4.6-2-4.1-4.5v0c.5-2.5 3.1-4.5 5.9-4.5h0c2.8 0 4.6 2 4.1 4.5v0C85.5 76.5 82.9 78.5 80.1 78.5zM60.1 78.5L60.1 78.5c-2.8 0-4.6-2-4.1-4.5v0c.5-2.5 3.1-4.5 5.9-4.5h0c2.8 0 4.6 2 4.1 4.5v0C65.5 76.5 62.9 78.5 60.1 78.5z"/><g><path fill="#c3dbea" d="M40.1,78.5L40.1,78.5c-2.8,0-4.6-2-4.1-4.5v0c0.5-2.5,3.1-4.5,5.9-4.5h0c2.8,0,4.6,2,4.1,4.5v0C45.5,76.5,42.9,78.5,40.1,78.5z"/></g></svg>