<svg width="51" height="50" viewBox="0 0 51 50" fill="none" xmlns="http://www.w3.org/2000/svg">
<path fill-rule="evenodd" clip-rule="evenodd" d="M20.8708 43.7501H30.1291C36.6312 43.7501 39.8833 43.7501 42.2187 42.2188C43.2267 41.5587 44.0946 40.7064 44.7729 39.7105C46.3333 37.4188 46.3333 34.2251 46.3333 27.8418C46.3333 21.4584 46.3333 18.2647 44.7729 15.973C44.0946 14.9772 43.2267 14.1248 42.2187 13.4647C40.7187 12.4793 38.8395 12.1272 35.9625 12.0022C34.5895 12.0022 33.4083 10.9813 33.1395 9.65843C32.9342 8.68941 32.4005 7.82101 31.6288 7.19999C30.8571 6.57898 29.8947 6.24345 28.9041 6.2501H22.0958C20.0375 6.2501 18.2645 7.67718 17.8604 9.65843C17.5916 10.9813 16.4104 12.0022 15.0375 12.0022C12.1625 12.1272 10.2833 12.4813 8.78121 13.4647C7.77399 14.125 6.90678 14.9774 6.22913 15.973C4.66663 18.2647 4.66663 21.4563 4.66663 27.8418C4.66663 34.2272 4.66663 37.4168 6.22704 39.7105C6.90204 40.7022 7.76871 41.5543 8.78121 42.2188C11.1166 43.7501 14.3687 43.7501 20.8708 43.7501ZM25.5 19.3188C20.7062 19.3188 16.8187 23.1334 16.8187 27.8397C16.8187 32.5459 20.7083 36.3668 25.5 36.3668C30.2916 36.3668 34.1812 32.5501 34.1812 27.8438C34.1812 23.1376 30.2916 19.3188 25.5 19.3188ZM25.5 22.7272C22.625 22.7272 20.2916 25.0168 20.2916 27.8418C20.2916 30.6647 22.625 32.9543 25.5 32.9543C28.375 32.9543 30.7083 30.6647 30.7083 27.8418C30.7083 25.0188 28.375 22.7272 25.5 22.7272ZM35.3375 21.023C35.3375 20.0813 36.1145 19.3188 37.075 19.3188H39.3875C40.3458 19.3188 41.125 20.0813 41.125 21.023C41.1206 21.479 40.9353 21.9147 40.6099 22.2342C40.2845 22.5538 39.8456 22.7311 39.3895 22.7272H37.075C36.849 22.7294 36.6248 22.687 36.4151 22.6026C36.2055 22.5181 36.0146 22.3932 35.8532 22.235C35.6919 22.0767 35.5633 21.8882 35.4748 21.6803C35.3863 21.4723 35.3396 21.249 35.3375 21.023Z" fill="white"/>
</svg>
